<svg width="current" height="current" viewBox="0 0 18 18" fill="none" xmlns="http://www.w3.org/2000/svg">
<path d="M9.00033 0.699951C4.41699 0.699951 0.666992 4.44162 0.666992 9.04995C0.666992 13.2166 3.71699 16.6749 7.70033 17.2999V11.4666H5.58366V9.04995H7.70033V7.20828C7.70033 5.11662 8.94199 3.96662 10.8503 3.96662C11.7587 3.96662 12.7087 4.12495 12.7087 4.12495V6.18328H11.6587C10.6253 6.18328 10.3003 6.82495 10.3003 7.48328V9.04995H12.617L12.242 11.4666H10.3003V17.2999C12.264 16.9898 14.0522 15.9879 15.3419 14.475C16.6317 12.9621 17.3381 11.038 17.3337 9.04995C17.3337 4.44162 13.5837 0.699951 9.00033 0.699951Z" fill="white"/>
</svg>
