<svg width="current" height="current" viewBox="0 0 18 18" fill="none" xmlns="http://www.w3.org/2000/svg">
<path d="M5.49935 0.666992H12.4993C15.166 0.666992 17.3327 2.83366 17.3327 5.50033V12.5003C17.3327 13.7822 16.8235 15.0116 15.917 15.918C15.0106 16.8244 13.7812 17.3337 12.4993 17.3337H5.49935C2.83268 17.3337 0.666016 15.167 0.666016 12.5003V5.50033C0.666016 4.21845 1.17524 2.98907 2.08167 2.08264C2.98809 1.17622 4.21747 0.666992 5.49935 0.666992ZM5.33268 2.33366C4.53703 2.33366 3.77397 2.64973 3.21136 3.21234C2.64875 3.77495 2.33268 4.53801 2.33268 5.33366V12.667C2.33268 14.3253 3.67435 15.667 5.33268 15.667H12.666C13.4617 15.667 14.2247 15.3509 14.7873 14.7883C15.3499 14.2257 15.666 13.4626 15.666 12.667V5.33366C15.666 3.67533 14.3243 2.33366 12.666 2.33366H5.33268ZM13.3743 3.58366C13.6506 3.58366 13.9156 3.69341 14.1109 3.88876C14.3063 4.08411 14.416 4.34906 14.416 4.62533C14.416 4.90159 14.3063 5.16654 14.1109 5.3619C13.9156 5.55725 13.6506 5.66699 13.3743 5.66699C13.0981 5.66699 12.8331 5.55725 12.6378 5.3619C12.4424 5.16654 12.3327 4.90159 12.3327 4.62533C12.3327 4.34906 12.4424 4.08411 12.6378 3.88876C12.8331 3.69341 13.0981 3.58366 13.3743 3.58366ZM8.99935 4.83366C10.1044 4.83366 11.1642 5.27265 11.9456 6.05405C12.727 6.83545 13.166 7.89526 13.166 9.00033C13.166 10.1054 12.727 11.1652 11.9456 11.9466C11.1642 12.728 10.1044 13.167 8.99935 13.167C7.89428 13.167 6.83447 12.728 6.05307 11.9466C5.27167 11.1652 4.83268 10.1054 4.83268 9.00033C4.83268 7.89526 5.27167 6.83545 6.05307 6.05405C6.83447 5.27265 7.89428 4.83366 8.99935 4.83366ZM8.99935 6.50033C8.33631 6.50033 7.70042 6.76372 7.23158 7.23256C6.76274 7.7014 6.49935 8.33728 6.49935 9.00033C6.49935 9.66337 6.76274 10.2993 7.23158 10.7681C7.70042 11.2369 8.33631 11.5003 8.99935 11.5003C9.66239 11.5003 10.2983 11.2369 10.7671 10.7681C11.236 10.2993 11.4993 9.66337 11.4993 9.00033C11.4993 8.33728 11.236 7.7014 10.7671 7.23256C10.2983 6.76372 9.66239 6.50033 8.99935 6.50033Z" fill="white"/>
</svg>
