<svg width="current" height="current" viewBox="0 0 12 18" fill="none" xmlns="http://www.w3.org/2000/svg">
<path d="M6.00033 8.58366C5.44779 8.58366 4.91789 8.36417 4.52719 7.97346C4.13649 7.58276 3.91699 7.05286 3.91699 6.50033C3.91699 5.94779 4.13649 5.41789 4.52719 5.02719C4.91789 4.63649 5.44779 4.41699 6.00033 4.41699C6.55286 4.41699 7.08276 4.63649 7.47346 5.02719C7.86417 5.41789 8.08366 5.94779 8.08366 6.50033C8.08366 6.77391 8.02977 7.04482 7.92508 7.29758C7.82038 7.55034 7.66692 7.78001 7.47346 7.97346C7.28001 8.16692 7.05034 8.32038 6.79758 8.42507C6.54482 8.52977 6.27391 8.58366 6.00033 8.58366ZM6.00033 0.666992C4.45323 0.666992 2.9695 1.28157 1.87554 2.37554C0.781574 3.4695 0.166992 4.95323 0.166992 6.50033C0.166992 10.8753 6.00033 17.3337 6.00033 17.3337C6.00033 17.3337 11.8337 10.8753 11.8337 6.50033C11.8337 4.95323 11.2191 3.4695 10.1251 2.37554C9.03115 1.28157 7.54742 0.666992 6.00033 0.666992Z" fill="#202020"/>
</svg>
