<svg width="current" height="current" viewBox="0 0 18 15" fill="none" xmlns="http://www.w3.org/2000/svg">
<path d="M17.7165 1.99967C17.0749 2.29134 16.3832 2.48301 15.6665 2.57467C16.3999 2.13301 16.9665 1.43301 17.2332 0.591341C16.5415 1.00801 15.7749 1.29967 14.9665 1.46634C14.3082 0.749675 13.3832 0.333008 12.3332 0.333008C10.3749 0.333008 8.77487 1.93301 8.77487 3.90801C8.77487 4.19134 8.8082 4.46634 8.86654 4.72468C5.89987 4.57468 3.2582 3.14967 1.49987 0.991341C1.19154 1.51634 1.01654 2.13301 1.01654 2.78301C1.01654 4.02467 1.64154 5.12467 2.6082 5.74967C2.01654 5.74967 1.46654 5.58301 0.983203 5.33301C0.983203 5.33301 0.983203 5.33301 0.983203 5.35801C0.983203 7.09134 2.21654 8.54134 3.84987 8.86634C3.54987 8.94967 3.2332 8.99134 2.9082 8.99134C2.6832 8.99134 2.4582 8.96634 2.24154 8.92467C2.69154 10.333 3.99987 11.383 5.57487 11.408C4.3582 12.3747 2.81654 12.9413 1.1332 12.9413C0.84987 12.9413 0.566536 12.9247 0.283203 12.8913C1.86654 13.908 3.74987 14.4997 5.76654 14.4997C12.3332 14.4997 15.9415 9.04967 15.9415 4.32467C15.9415 4.16634 15.9415 4.01634 15.9332 3.85801C16.6332 3.35801 17.2332 2.72467 17.7165 1.99967Z" fill="white"/>
</svg>
